<svg xmlns="http://www.w3.org/2000/svg" viewBox="0 0 100 100" width="1024" height="1024">
<rect x="0" y="0" width="100" height="100" fill="#100d13"></rect><rect x="0.00" y="0.00" width="11.36" height="11.36" fill="#898aa1" fill-opacity="0.86"></rect><rect x="12.66" y="0.00" width="11.36" height="11.36" fill="#ff7d3e" fill-opacity="0.97"></rect><rect x="25.32" y="0.00" width="11.36" height="11.36" fill="#ec3840" fill-opacity="0.97"></rect><rect x="37.98" y="0.00" width="11.36" height="11.36" fill="#403257" fill-opacity="0.99"></rect><rect x="50.64" y="0.00" width="11.36" height="11.36" fill="#ff7d3e" fill-opacity="0.96"></rect><rect x="63.30" y="0.00" width="11.36" height="11.36" fill="#403257" fill-opacity="0.99"></rect><rect x="75.96" y="0.00" width="11.36" height="11.36" fill="#8a647b" fill-opacity="0.87"></rect><rect x="88.62" y="0.00" width="11.36" height="11.36" fill="#ff7d3e" fill-opacity="0.96"></rect><rect x="0.00" y="12.66" width="11.36" height="11.36" fill="#68476f" fill-opacity="0.93"></rect><rect x="12.66" y="12.66" width="11.36" height="11.36" fill="#ec3840" fill-opacity="0.96"></rect><rect x="25.32" y="12.66" width="11.36" height="11.36" fill="#68476f" fill-opacity="0.93"></rect><rect x="37.98" y="12.66" width="11.36" height="11.36" fill="#8a647b" fill-opacity="0.88"></rect><rect x="50.64" y="12.66" width="11.36" height="11.36" fill="#ffc837" fill-opacity="0.97"></rect><rect x="63.30" y="12.66" width="11.36" height="11.36" fill="#ff7d3e" fill-opacity="0.98"></rect><rect x="75.96" y="12.66" width="11.36" height="11.36" fill="#403257" fill-opacity="1.00"></rect><rect x="88.62" y="12.66" width="11.36" height="11.36" fill="#68476f" fill-opacity="0.94"></rect><rect x="0.00" y="25.32" width="11.36" height="11.36" fill="#403257" fill-opacity="1.00"></rect><rect x="12.66" y="25.32" width="11.36" height="11.36" fill="#8a647b" fill-opacity="0.93"></rect><rect x="25.32" y="25.32" width="11.36" height="11.36" fill="#ec3840" fill-opacity="0.97"></rect><rect x="37.98" y="25.32" width="11.36" height="11.36" fill="#403257" fill-opacity="0.96"></rect><rect x="50.64" y="25.32" width="11.36" height="11.36" fill="#ec3840" fill-opacity="0.97"></rect><rect x="63.30" y="25.32" width="11.36" height="11.36" fill="#8a647b" fill-opacity="0.86"></rect><rect x="75.96" y="25.32" width="11.36" height="11.36" fill="#ec3840" fill-opacity="0.97"></rect><rect x="88.62" y="25.32" width="11.36" height="11.36" fill="#403257" fill-opacity="0.96"></rect><rect x="0.00" y="37.98" width="11.36" height="11.36" fill="#ec3840" fill-opacity="0.97"></rect><rect x="12.66" y="37.98" width="11.36" height="11.36" fill="#898aa1" fill-opacity="0.76"></rect><rect x="25.32" y="37.98" width="11.36" height="11.36" fill="#8a647b" fill-opacity="0.93"></rect><rect x="37.98" y="37.98" width="11.36" height="11.36" fill="#68476f" fill-opacity="0.97"></rect><rect x="50.64" y="37.98" width="11.36" height="11.36" fill="#8a647b" fill-opacity="0.94"></rect><rect x="63.30" y="37.98" width="11.36" height="11.36" fill="#403257" fill-opacity="0.97"></rect><rect x="75.96" y="37.98" width="11.36" height="11.36" fill="#898aa1" fill-opacity="0.77"></rect><rect x="88.62" y="37.98" width="11.36" height="11.36" fill="#8a647b" fill-opacity="0.88"></rect><rect x="0.00" y="50.64" width="11.36" height="11.36" fill="#898aa1" fill-opacity="0.86"></rect><rect x="12.66" y="50.64" width="11.36" height="11.36" fill="#403257" fill-opacity="0.97"></rect><rect x="25.32" y="50.64" width="11.36" height="11.36" fill="#898aa1" fill-opacity="0.81"></rect><rect x="37.98" y="50.64" width="11.36" height="11.36" fill="#ff7d3e" fill-opacity="1.00"></rect><rect x="50.64" y="50.64" width="11.36" height="11.36" fill="#68476f" fill-opacity="0.92"></rect><rect x="63.30" y="50.64" width="11.36" height="11.36" fill="#ffc837" fill-opacity="0.94"></rect><rect x="75.96" y="50.64" width="11.36" height="11.36" fill="#ff7d3e" fill-opacity="0.96"></rect><rect x="88.62" y="50.64" width="11.36" height="11.36" fill="#68476f" fill-opacity="0.96"></rect><rect x="0.00" y="63.30" width="11.36" height="11.36" fill="#ff7d3e" fill-opacity="0.99"></rect><rect x="12.66" y="63.30" width="11.36" height="11.36" fill="#68476f" fill-opacity="0.96"></rect><rect x="25.32" y="63.30" width="11.36" height="11.36" fill="#ff7d3e" fill-opacity="1.00"></rect><rect x="37.98" y="63.30" width="11.36" height="11.36" fill="#ffc837" fill-opacity="0.95"></rect><rect x="50.64" y="63.30" width="11.36" height="11.36" fill="#ff7d3e" fill-opacity="1.00"></rect><rect x="63.30" y="63.30" width="11.36" height="11.36" fill="#68476f" fill-opacity="0.93"></rect><rect x="75.96" y="63.30" width="11.36" height="11.36" fill="#ffc837" fill-opacity="0.95"></rect><rect x="88.62" y="63.30" width="11.36" height="11.36" fill="#ff7d3e" fill-opacity="1.00"></rect><rect x="0.00" y="75.96" width="11.36" height="11.36" fill="#403257" fill-opacity="0.97"></rect><rect x="12.66" y="75.96" width="11.36" height="11.36" fill="#ffc837" fill-opacity="0.95"></rect><rect x="25.32" y="75.96" width="11.36" height="11.36" fill="#8a647b" fill-opacity="0.94"></rect><rect x="37.98" y="75.96" width="11.36" height="11.36" fill="#403257" fill-opacity="0.95"></rect><rect x="50.64" y="75.96" width="11.36" height="11.36" fill="#ec3840" fill-opacity="1.00"></rect><rect x="63.30" y="75.96" width="11.36" height="11.36" fill="#403257" fill-opacity="0.97"></rect><rect x="75.96" y="75.96" width="11.36" height="11.36" fill="#68476f" fill-opacity="0.97"></rect><rect x="88.62" y="75.96" width="11.36" height="11.36" fill="#ffc837" fill-opacity="0.97"></rect><rect x="0.00" y="88.62" width="11.36" height="11.36" fill="#ec3840" fill-opacity="1.00"></rect><rect x="12.66" y="88.62" width="11.36" height="11.36" fill="#898aa1" fill-opacity="0.78"></rect><rect x="25.32" y="88.62" width="11.36" height="11.36" fill="#ffc837" fill-opacity="0.93"></rect><rect x="37.98" y="88.62" width="11.36" height="11.36" fill="#ec3840" fill-opacity="0.98"></rect><rect x="50.64" y="88.62" width="11.36" height="11.36" fill="#ffc837" fill-opacity="0.93"></rect><rect x="63.30" y="88.62" width="11.36" height="11.36" fill="#8a647b" fill-opacity="0.94"></rect><rect x="75.96" y="88.62" width="11.36" height="11.36" fill="#ec3840" fill-opacity="0.96"></rect><rect x="88.62" y="88.62" width="11.36" height="11.36" fill="#898aa1" fill-opacity="0.85"></rect><g fill="none" stroke="#0b090e" stroke-linecap="round">
            <path d="M50 7.22 A40.92 40.92 0 0 1 50 89.06" stroke-width="13"></path><path d="M50 89.06 A30.69 30.69 0 0 1 50 27.68" stroke-width="11"></path><path d="M50 27.68 A22.32 22.32 0 0 1 50 72.32" stroke-width="9.5"></path><path d="M50 72.32 A14.88 14.88 0 0 1 50 42.56" stroke-width="8"></path><path d="M50 42.56 A7.44 7.44 0 0 1 50 57.44" stroke-width="7"></path>
          </g>
          <g fill="none" stroke="#d5f6fb" stroke-linecap="round">
            <path d="M50 7.22 A40.92 40.92 0 0 1 50 89.06" stroke-width="9" stroke-opacity="1"></path>
            <path d="M50 89.06 A30.69 30.69 0 0 1 50 27.68" stroke-width="7" stroke-opacity="0.78"></path>
            <path d="M50 27.68 A22.32 22.32 0 0 1 50 72.32" stroke-width="5.5" stroke-opacity="0.58"></path>
            <path d="M50 72.32 A14.88 14.88 0 0 1 50 42.56" stroke-width="4" stroke-opacity="0.42"></path>
            <path d="M50 42.56 A7.44 7.44 0 0 1 50 57.44" stroke-width="3" stroke-opacity="0.3"></path>
            <circle cx="50" cy="50" r="4" fill="#d5f6fb" stroke="none"></circle>
          </g>
</svg>